<?xml version="1.0" encoding="UTF-8"?>
<svg version="1.1" xmlns="http://www.w3.org/2000/svg" width="533" height="576">
    <path d="M0 0 C0.92522461 0.43699219 0.92522461 0.43699219 1.86914062 0.8828125 C17.19075613 8.16613117 32.07831298 16.74983862 44 29 C44.69480469 29.66 45.38960938 30.32 46.10546875 31 C56.1869015 40.68422808 64.12182117 51.86611597 71 64 C71.33773438 64.59087402 71.67546875 65.18174805 72.0234375 65.79052734 C91.01015608 99.52585768 93.45239501 141.38222376 83.4296875 178.26171875 C78.22124286 196.22976313 78.22124286 196.22976313 73 200 C70.13671875 200.921875 70.13671875 200.921875 66.6875 201.75 C55.12754366 204.89077326 45.10911585 210.16686925 36 218 C35.33742188 218.50789062 34.67484375 219.01578125 33.9921875 219.5390625 C20.29264488 230.4449729 12.61464115 248.03466403 10 265 C8.71120735 276.86940055 8.79532792 288.61785367 10.13671875 300.46875 C9.96579456 304.88347766 8.72098043 306.56780209 6 310 C5.24203125 311.01578125 4.4840625 312.0315625 3.703125 313.078125 C2.88774264 314.13721149 2.06995319 315.19444832 1.25 316.25 C0.80954346 316.81936279 0.36908691 317.38872559 -0.0847168 317.9753418 C-4.00238003 323.02753194 -7.98082766 328.02818647 -12 333 C-13.02345952 334.2747219 -14.04689512 335.54946302 -15.0703125 336.82421875 C-20.57318133 343.65801024 -26.13360051 350.36230312 -32.07421875 356.82421875 C-34.41003807 359.46326817 -36.49025065 362.23149861 -38.515625 365.11328125 C-40.48651311 367.61838376 -42.72508164 369.76825528 -45 372 C-46.36318359 373.39798828 -46.36318359 373.39798828 -47.75390625 374.82421875 C-48.69007875 375.77867077 -49.6262768 376.73309771 -50.5625 377.6875 C-51.03107422 378.17283203 -51.49964844 378.65816406 -51.98242188 379.15820312 C-55.39427103 382.61777045 -57.99943727 384.59079399 -62.75 385.5625 C-70.43606229 384.23221999 -75.85347022 376.14727255 -81 370.6875 C-81.5885376 370.06472168 -82.1770752 369.44194336 -82.78344727 368.80029297 C-87 364.24081469 -87 364.24081469 -87 362 C-87.66 362 -88.32 362 -89 362 C-90.26928798 360.57279591 -91.46538593 359.08016224 -92.625 357.5625 C-95.3019545 354.1282809 -98.01748964 350.79265174 -100.9375 347.5625 C-104.55143788 343.54313002 -107.98580548 339.40435186 -111.390625 335.20703125 C-113.34566889 332.79709329 -115.31775817 330.40192642 -117.296875 328.01171875 C-128.92982904 313.9605885 -140.12452044 299.6445724 -151 285 C-151.44279297 284.40670898 -151.88558594 283.81341797 -152.34179688 283.20214844 C-164.16873114 267.34694258 -175.65089316 251.19202053 -185.9609375 234.3046875 C-187.65505457 231.55904949 -189.41154339 228.89926312 -191.25 226.25 C-194.02364638 222.13601613 -196.20688732 217.81745001 -198.3671875 213.35546875 C-199.5314367 210.9629088 -200.71790153 208.59771787 -201.9453125 206.23828125 C-220.73317967 169.94741778 -224.63071225 131.43603508 -213 92 C-212.63003906 90.73929687 -212.26007813 89.47859375 -211.87890625 88.1796875 C-200.29747815 51.19506138 -172.83528736 21.76689219 -138.89599609 3.97265625 C-134.00596158 1.4640421 -129.05827076 -0.85205803 -124 -3 C-123.17113281 -3.35578125 -122.34226562 -3.7115625 -121.48828125 -4.078125 C-83.17855279 -19.23362197 -37.13081268 -17.68133937 0 0 Z M-146.5859375 69.9921875 C-154.23474116 79.52225032 -159.63614161 89.5890046 -164 101 C-164.30550781 101.7528125 -164.61101562 102.505625 -164.92578125 103.28125 C-174.12085198 127.80143862 -172.04096445 157.74920476 -161.6953125 181.5078125 C-148.20358943 209.29951856 -126.40551402 230.03893769 -96.9921875 240.23071289 C-88.45425786 242.99193793 -79.9287147 244.31170508 -71 245 C-70.10539062 245.0721875 -69.21078125 245.144375 -68.2890625 245.21875 C-44.48259459 246.11994121 -20.10186672 238.09544923 -1 224 C-1 223.34 -1 222.68 -1 222 C-0.15308594 221.62294922 -0.15308594 221.62294922 0.7109375 221.23828125 C18.7724848 211.46778553 30.98541635 187.71139155 36.62988281 168.90087891 C44.53639778 140.65870391 42.64744442 111.88814426 28.375 86 C24.11704011 78.60373176 18.76822101 72.25630125 13 66 C12.22398437 65.15308594 11.44796875 64.30617188 10.6484375 63.43359375 C3.73031635 56.20990188 -4.20937538 50.70926319 -13 46 C-13.71285156 45.61199219 -14.42570313 45.22398438 -15.16015625 44.82421875 C-59.80750592 21.37528551 -113.59660253 32.39481844 -146.5859375 69.9921875 Z " fill="#FFFFFF" transform="translate(296,33)"/>
    <path d="M0 0 C1.53064342 -0.00525936 3.06128361 -0.01154408 4.59191895 -0.01878357 C7.77188568 -0.02908543 10.95140209 -0.02477497 14.13134766 -0.01000977 C18.15872389 0.00718255 22.18467364 -0.01637576 26.21189117 -0.05149937 C29.36428858 -0.07370439 32.51635648 -0.07197726 35.66880798 -0.06373405 C37.15162219 -0.06292748 38.63446389 -0.06953616 40.11720276 -0.08450508 C61.50211971 -0.26744676 78.26351027 7.64805784 93.46875 22.56640625 C93.98308594 23.01113281 94.49742187 23.45585937 95.02734375 23.9140625 C106.60277816 37.18346292 108.51030613 56.54081495 107.63720703 73.35253906 C106.57589422 87.30034279 102.89773353 100.90852676 93.46875 111.56640625 C92.88351562 112.23285156 92.29828125 112.89929688 91.6953125 113.5859375 C81.8814226 124.06076285 68.68718713 131.00581587 54.18528748 131.6711731 C51.44371263 131.727946 48.70301918 131.75654672 45.9609375 131.77734375 C43.90233551 131.80539145 41.84374185 131.83405574 39.78515625 131.86328125 C36.55485079 131.90465122 33.32470447 131.94156079 30.09423828 131.96777344 C26.9661504 131.99532531 23.83875835 132.04116869 20.7109375 132.08984375 C19.74421112 132.09309662 18.77748474 132.09634949 17.78146362 132.09970093 C16.88017731 132.1162674 15.97889099 132.13283386 15.05029297 132.14990234 C14.26008759 132.1579892 13.4698822 132.16607605 12.6557312 132.17440796 C9.95191086 132.65904539 8.58666662 133.86856471 6.46875 135.56640625 C5.80875 135.56640625 5.14875 135.56640625 4.46875 135.56640625 C4.27152344 136.11039063 4.07429688 136.654375 3.87109375 137.21484375 C1.87401087 140.56371253 -0.99367332 142.74649438 -3.96875 145.19140625 C-5.23697341 146.25235859 -6.50388319 147.314883 -7.76953125 148.37890625 C-8.71820068 149.17554688 -8.71820068 149.17554688 -9.68603516 149.98828125 C-13.30250564 153.08127744 -16.75827957 156.34802369 -20.2265625 159.60546875 C-23.43640057 162.33655131 -25.35182254 163.56640625 -29.59375 163.56640625 C-32.53125 162.56640625 -32.53125 162.56640625 -34.1965332 159.93701172 C-35.66675868 156.2242016 -35.87702513 153.61479944 -35.82421875 149.63671875 C-35.8097168 147.703125 -35.8097168 147.703125 -35.79492188 145.73046875 C-35.76986188 144.38410839 -35.74446712 143.03775422 -35.71875 141.69140625 C-35.70368504 140.3216292 -35.68999982 138.95183623 -35.67773438 137.58203125 C-35.64246379 134.24308267 -35.59316896 130.9049495 -35.53125 127.56640625 C-36.35906982 127.15503418 -37.18688965 126.74366211 -38.03979492 126.31982422 C-39.12365479 125.77986816 -40.20751465 125.23991211 -41.32421875 124.68359375 C-42.93719849 123.88091064 -42.93719849 123.88091064 -44.58276367 123.06201172 C-51.44184089 119.58277788 -55.73387867 115.44915571 -60.53125 109.56640625 C-61.05976563 108.97085938 -61.58828125 108.3753125 -62.1328125 107.76171875 C-74.41614562 93.08471045 -73.60972099 71.94088394 -72.2578125 53.921875 C-70.02264869 38.17029607 -62.48158883 24.98297353 -50.41015625 14.69921875 C-35.1552938 3.39778741 -18.62534419 -0.07981182 0 0 Z M-35.53125 56.56640625 C-39.41024422 60.88871409 -40.24517057 64.52422928 -39.96484375 70.15625 C-39.19121201 74.45652731 -38.02828624 75.83871798 -34.53125 78.56640625 C-29.74204162 79.96890321 -25.83194028 79.9920867 -21.09375 78.44140625 C-18.11833729 76.264275 -16.8786714 75.0098165 -15.53125 71.56640625 C-14.80044799 66.68537059 -15.05263518 63.45982057 -17.40625 59.06640625 C-19.28349663 56.52700707 -19.28349663 56.52700707 -21.53125 55.56640625 C-23.34166793 55.47007728 -25.15577753 55.43659092 -26.96875 55.44140625 C-27.93683594 55.43882812 -28.90492188 55.43625 -29.90234375 55.43359375 C-32.64142829 55.45426652 -32.64142829 55.45426652 -35.53125 56.56640625 Z M7.46875 57.56640625 C3.84960965 61.51534836 3.96255912 64.76398609 4.12109375 69.93359375 C4.60276365 73.58129611 5.62381925 75.24554169 8.46875 77.56640625 C13.35318718 80.06542062 18.27230444 80.15208633 23.46875 78.56640625 C27.06375946 75.77843973 28.17699448 74.34559393 28.90625 69.8984375 C29.08939574 65.657469 28.83553131 62.42222931 27.15625 58.50390625 C21.20803706 54.21565971 13.53655899 53.0155495 7.46875 57.56640625 Z M50.46875 58.56640625 C47.49567305 63.02602167 47.84859291 67.33718039 48.46875 72.56640625 C50.26069559 75.81845566 51.59305237 77.06938868 54.78125 78.87890625 C59.28417101 80.03081628 62.93686817 80.26271617 67.21875 78.31640625 C70.84852945 75.49324445 72.20924692 73.66430388 73.28125 69.12890625 C73.54780384 64.06438338 72.36270281 61.86407969 69.53125 57.75390625 C63.9301224 53.75310082 55.78013737 53.94035919 50.46875 58.56640625 Z " fill="#FFFFFF" transform="translate(392.53125,246.43359375)"/>
    <path d="M0 0 C1.093125 0.00257813 2.18625 0.00515625 3.3125 0.0078125 C4.405625 0.00523437 5.49875 0.00265625 6.625 0 C9.3125 0.1328125 9.3125 0.1328125 10.3125 1.1328125 C10.40088648 3.50822301 10.42787523 5.8551483 10.41015625 8.23046875 C10.40765869 9.52734619 10.40516113 10.82422363 10.40258789 12.16040039 C10.39348389 13.82192139 10.38437988 15.48344238 10.375 17.1953125 C10.354375 22.4546875 10.33375 27.7140625 10.3125 33.1328125 C21.8625 33.1328125 33.4125 33.1328125 45.3125 33.1328125 C45.3125 22.5728125 45.3125 12.0128125 45.3125 1.1328125 C49.9325 1.1328125 54.5525 1.1328125 59.3125 1.1328125 C59.3125 27.2028125 59.3125 53.2728125 59.3125 80.1328125 C54.6925 80.1328125 50.0725 80.1328125 45.3125 80.1328125 C45.3125 69.5728125 45.3125 59.0128125 45.3125 48.1328125 C34.0925 48.4628125 22.8725 48.7928125 11.3125 49.1328125 C11.35167194 55.59355103 11.35167194 55.59355103 11.40258789 62.05419922 C11.4209875 68.15218631 11.01070391 74.07438175 10.3125 80.1328125 C5.6925 80.1328125 1.0725 80.1328125 -3.6875 80.1328125 C-3.71062376 69.84976712 -3.72841525 59.56672788 -3.73931217 49.28366184 C-3.74454093 44.5093297 -3.75163844 39.73501529 -3.76293945 34.96069336 C-3.7737686 30.35714988 -3.77977689 25.75362351 -3.78237724 21.15006828 C-3.78423144 19.38971627 -3.78785196 17.62936524 -3.79323006 15.86902046 C-3.80044086 13.41208973 -3.80149093 10.95523055 -3.80102539 8.49829102 C-3.80462067 7.76317795 -3.80821594 7.02806488 -3.81192017 6.27067566 C-3.79936641 0.18775939 -3.79936641 0.18775939 0 0 Z " fill="#FFFFFF" transform="translate(27.6875,459.8671875)"/>
    <path d="M0 0 C3.25654617 2.65006389 5.21134226 5.13402679 6.5625 9.1875 C6.2325 10.1775 5.9025 11.1675 5.5625 12.1875 C3.6015625 13.13671875 3.6015625 13.13671875 1.1875 13.875 C0.39601563 14.12636719 -0.39546875 14.37773437 -1.2109375 14.63671875 C-3.4375 15.1875 -3.4375 15.1875 -6.4375 15.1875 C-7.4584375 13.764375 -7.4584375 13.764375 -8.5 12.3125 C-11.38402243 8.64666426 -14.36479287 7.96845486 -18.87109375 7.296875 C-24.01608929 7.07760578 -29.07042094 8.3925694 -33.4375 11.1875 C-34.64022819 13.59295638 -34.53821472 15.13746953 -34.5 17.8125 C-34.48646484 19.03839844 -34.48646484 19.03839844 -34.47265625 20.2890625 C-34.46105469 20.91554688 -34.44945312 21.54203125 -34.4375 22.1875 C-30.99429989 23.62778013 -27.58221428 24.76462532 -23.98046875 25.73828125 C-22.43456055 26.16850586 -22.43456055 26.16850586 -20.85742188 26.60742188 C-18.71635463 27.19864105 -16.57312404 27.78208525 -14.42773438 28.35742188 C-5.97448429 30.73275882 1.59900416 33.55135255 6.5625 41.1875 C9.52164145 47.52544296 9.73589729 54.28527181 7.72265625 60.98046875 C4.57421118 67.98761418 0.22120595 72.15221816 -6.7890625 75.21484375 C-15.90466115 78.35466106 -26.29458682 78.29903981 -35.4375 75.1875 C-41.08991204 72.24575725 -46.85717436 68.55394887 -49.11328125 62.3203125 C-49.61351566 60.62564081 -50.03279673 58.90748891 -50.4375 57.1875 C-48.50393218 56.48901736 -46.56547702 55.80405186 -44.625 55.125 C-43.54605469 54.74214844 -42.46710938 54.35929688 -41.35546875 53.96484375 C-38.4375 53.1875 -38.4375 53.1875 -35.4375 54.1875 C-35.14875 55.156875 -34.86 56.12625 -34.5625 57.125 C-33.76392679 60.28296702 -33.76392679 60.28296702 -31.375 61.4375 C-29.9209375 61.80875 -29.9209375 61.80875 -28.4375 62.1875 C-27.75042969 62.39375 -27.06335938 62.6 -26.35546875 62.8125 C-21.13085484 64.23658556 -17.54488574 64.446536 -12.4375 62.1875 C-8.94362018 59.52911318 -7.65408543 57.90095789 -6.375 53.6875 C-6.45300882 49.31900626 -7.40832988 48.25633192 -10.4375 45.1875 C-13.39362485 43.80687781 -13.39362485 43.80687781 -16.6875 43 C-17.84636719 42.67386719 -19.00523437 42.34773438 -20.19921875 42.01171875 C-22.62899842 41.39328267 -25.04913555 40.83363118 -27.5 40.3125 C-35.70936289 38.32129283 -43.86368391 34.44251863 -48.4375 27.1875 C-50.42991986 21.14512865 -50.25692937 13.9018598 -48.4375 7.875 C-37.25774155 -7.14780041 -15.52491955 -10.79378531 0 0 Z " fill="#FFFFFF" transform="translate(308.4375,464.8125)"/>
    <path d="M0 0 C6.75104455 6.8891341 8.65935989 14.52536894 8.75 24.03125 C8.32811224 33.07019525 6.2811572 41.19149905 -0.28125 47.75390625 C-6.80636133 52.58935718 -12.08551848 54.30954906 -20.28125 53.75390625 C-25.13723038 52.41273072 -28.92951206 50.36494901 -33.28125 47.75390625 C-33.28125 56.00390625 -33.28125 64.25390625 -33.28125 72.75390625 C-44.28125 73.75390625 -44.28125 73.75390625 -48.28125 72.75390625 C-48.30437428 62.86201249 -48.32216552 52.97012511 -48.33306217 43.07820988 C-48.33829082 38.48547985 -48.34538812 33.89276825 -48.35668945 29.30004883 C-48.367519 24.87156937 -48.37352698 20.44310769 -48.37612724 16.01461601 C-48.37798137 14.32124997 -48.38160175 12.62788496 -48.38698006 10.93452644 C-48.3941914 8.57099393 -48.3952409 6.2075358 -48.39477539 3.84399414 C-48.39837067 3.13693329 -48.40196594 2.42987244 -48.40567017 1.7013855 C-48.39530216 -3.13204159 -48.39530216 -3.13204159 -47.28125 -4.24609375 C-45.59516034 -4.31814886 -43.90624341 -4.32995443 -42.21875 -4.30859375 C-41.29964844 -4.29957031 -40.38054687 -4.29054688 -39.43359375 -4.28125 C-38.72332031 -4.26964844 -38.01304687 -4.25804687 -37.28125 -4.24609375 C-36.95125 -2.26609375 -36.62125 -0.28609375 -36.28125 1.75390625 C-35.29125 1.75390625 -34.30125 1.75390625 -33.28125 1.75390625 C-33.28125 1.09390625 -33.28125 0.43390625 -33.28125 -0.24609375 C-22.36524699 -6.95411374 -10.47443287 -8.90756074 0 0 Z M-29.28125 9.75390625 C-29.838125 10.18703125 -30.395 10.62015625 -30.96875 11.06640625 C-35.09994251 16.37793947 -35.0260783 23.34111626 -34.28125 29.75390625 C-33.04061924 33.65485864 -31.26715286 36.66237094 -28.53125 39.69140625 C-23.60378243 42.01826593 -19.70451126 42.16399848 -14.59375 40.69140625 C-10.32536441 38.19480336 -7.48321319 35.52766747 -5.46875 30.87890625 C-4.7708348 22.96920062 -5.13887233 15.68187834 -10.28125 9.25390625 C-15.87050735 5.06196324 -23.92463762 5.50012583 -29.28125 9.75390625 Z " fill="#FFFFFF" transform="translate(240.28125,488.24609375)"/>
    <path d="M0 0 C4.62 0 9.24 0 14 0 C14 10.23 14 20.46 14 31 C17.3 29.02 20.6 27.04 24 25 C28.47995531 22.76002234 34.59007694 23.36517128 39.328125 24.61328125 C44.79110122 26.97987591 47.47197457 30.71610134 50 36 C50.91861784 38.75585352 51.12204322 40.3596069 51.11352539 43.19604492 C51.11344986 44.03668991 51.11337433 44.8773349 51.11329651 45.74345398 C51.10813522 46.64666885 51.10297394 47.54988373 51.09765625 48.48046875 C51.0962413 49.40845779 51.09482635 50.33644684 51.09336853 51.29255676 C51.08776937 54.25757058 51.07521704 57.22250899 51.0625 60.1875 C51.05748489 62.19726453 51.052922 64.20703025 51.04882812 66.21679688 C51.03780021 71.14456032 51.02053617 76.07226737 51 81 C46.38 81 41.76 81 37 81 C36.99589111 79.8447583 36.99178223 78.6895166 36.98754883 77.49926758 C36.96573676 73.20308131 36.91142598 68.90780821 36.84741211 64.61206055 C36.82425012 62.75472787 36.8098406 60.89726418 36.80444336 59.03979492 C36.79514038 56.365545 36.75412303 53.69335032 36.70703125 51.01953125 C36.7109639 50.19226028 36.71489655 49.36498932 36.71894836 48.51264954 C36.60978469 44.17551313 36.38704663 42.48777239 33.59838867 38.97338867 C30.15188645 36.35588633 28.31684371 36.38814773 24.15234375 36.64453125 C21.13486941 37.14288001 19.29975756 37.97900093 17 40 C14.72068204 44.32000879 14.65841111 48.58460371 14.5859375 53.36328125 C14.56657135 54.15526413 14.5472052 54.94724701 14.5272522 55.76322937 C14.46772768 58.27954519 14.42118042 60.79590744 14.375 63.3125 C14.33679519 65.0241079 14.29774201 66.73569709 14.2578125 68.44726562 C14.1620487 72.63135749 14.0779182 76.81553931 14 81 C11.85423363 81.02685938 9.70837355 81.04633088 7.5625 81.0625 C6.36753906 81.07410156 5.17257812 81.08570313 3.94140625 81.09765625 C1 81 1 81 0 80 C-0.09502416 77.50507612 -0.12557566 75.03793986 -0.11352539 72.54272461 C-0.11367142 71.76229294 -0.11381744 70.98186127 -0.1139679 70.17778015 C-0.11326858 67.5859402 -0.10547536 64.99417122 -0.09765625 62.40234375 C-0.09579213 60.6101536 -0.0943682 58.81796294 -0.09336853 57.02577209 C-0.08954284 52.29929203 -0.07971212 47.57284248 -0.06866455 42.84637451 C-0.05845153 38.0271445 -0.05387115 33.20790958 -0.04882812 28.38867188 C-0.03808989 18.92576781 -0.02101286 9.46288644 0 0 Z " fill="#FFFFFF" transform="translate(433,459)"/>
    <path d="M0 0 C4.68584218 3.60289199 5.86786364 6.68171592 7.7578125 12.3515625 C7.7578125 17.3015625 7.7578125 22.2515625 7.7578125 27.3515625 C-5.1121875 27.6815625 -17.9821875 28.0115625 -31.2421875 28.3515625 C-30.35307378 32.79713108 -29.89701159 34.87282749 -27.2421875 38.3515625 C-22.84900854 41.24706681 -19.45750167 41.91034616 -14.2421875 41.3515625 C-9.54980529 39.56845726 -6.61960119 37.02698328 -3.2421875 33.3515625 C1.7078125 35.8265625 1.7078125 35.8265625 6.7578125 38.3515625 C4.07722125 45.05304063 -0.15969947 49.45185313 -6.77734375 52.53125 C-15.78001545 55.45329182 -23.48862014 54.92153287 -32.2421875 51.3515625 C-38.90548044 47.77242229 -42.52478428 42.8660394 -44.9921875 35.7265625 C-47.72193125 25.73750021 -46.97202787 15.5851923 -42.2109375 6.3515625 C-38.45592639 0.46532886 -32.90983191 -3.07460981 -26.2421875 -4.9609375 C-16.68760074 -6.92037424 -8.11759082 -5.4435609 0 0 Z M-28.2421875 9.3515625 C-31.07670759 13.54465028 -31.07670759 13.54465028 -32.2421875 18.3515625 C-23.3321875 18.3515625 -14.4221875 18.3515625 -5.2421875 18.3515625 C-6.28217337 12.11164729 -6.68321105 11.16837999 -11.2421875 7.3515625 C-16.94135145 3.49083853 -23.24501242 4.95937229 -28.2421875 9.3515625 Z " fill="#FFFFFF" transform="translate(145.2421875,487.6484375)"/>
    <path d="M0 0 C5.84705167 4.51817629 7.93773474 7.63751818 9.04589844 15.12402344 C9.94797981 23.15851472 9.8616209 31.17934325 9.8125 39.25 C9.80747252 40.69791511 9.80291183 42.14583192 9.79882812 43.59375 C9.78878667 47.10424412 9.76919473 50.61449694 9.75 54.125 C5.46 54.125 1.17 54.125 -3.25 54.125 C-3.58 53.135 -3.91 52.145 -4.25 51.125 C-4.91 51.393125 -5.57 51.66125 -6.25 51.9375 C-7.24 52.329375 -8.23 52.72125 -9.25 53.125 C-9.85457031 53.38925781 -10.45914062 53.65351562 -11.08203125 53.92578125 C-18.42862026 56.98323743 -24.77319294 56.88764327 -32.203125 54.171875 C-36.36521455 52.04317271 -38.37009288 48.75911322 -40.5625 44.6875 C-42.1602599 38.73221311 -41.2892094 34.42949493 -38.7109375 29.01953125 C-34.58694975 23.67157922 -29.25308917 22.3282037 -22.9375 21.375 C-21.81516968 21.19070435 -21.81516968 21.19070435 -20.67016602 21.00268555 C-15.48021389 20.19395699 -10.50621471 19.83829738 -5.25 20.125 C-5.56024675 14.95028561 -5.56024675 14.95028561 -7.3125 10.1875 C-11.08672036 8.11776625 -15.11783292 7.58573595 -19.2578125 8.6328125 C-22.68973054 9.99696402 -24.17542166 11.01313249 -26.25 14.125 C-31.09659077 13.53395235 -34.85748167 12.14555843 -39.25 10.125 C-37.86140585 4.87919989 -34.69001525 1.9757847 -30.25 -0.875 C-20.39359875 -5.23393653 -9.42382239 -5.43682061 0 0 Z M-25.625 32.375 C-27.50966392 35.03205907 -27.50966392 35.03205907 -27.25 38.1875 C-26.05755599 41.69030428 -25.36977972 43.09714318 -22.25 45.125 C-17.55107682 46.00046477 -14.15262436 45.57631218 -9.875 43.4375 C-7.16907489 41.05370883 -5.6400657 39.4457125 -4.25 36.125 C-3.99900133 32.41606092 -3.99900133 32.41606092 -4.25 29.125 C-11.69815074 26.97484101 -19.80890602 26.86501623 -25.625 32.375 Z " fill="#FFFFFF" transform="translate(368.25,485.875)"/>
    <path d="M0 0 C4.62 0 9.24 0 14 0 C14 5.94 14 11.88 14 18 C18.95 18 23.9 18 29 18 C29 21.96 29 25.92 29 30 C24.05 30 19.1 30 14 30 C14.09697686 34.07558002 14.19972884 38.15036748 14.31738281 42.2253418 C14.3556435 43.61131907 14.39050156 44.99739465 14.421875 46.38354492 C14.46758699 48.3770164 14.52658925 50.37016914 14.5859375 52.36328125 C14.63306885 54.16212769 14.63306885 54.16212769 14.68115234 55.99731445 C14.78429494 59.17882706 14.78429494 59.17882706 17 62 C19.89608399 62.36498034 19.89608399 62.36498034 23.125 62.1875 C26.033125 62.0946875 26.033125 62.0946875 29 62 C29 65.96 29 69.92 29 74 C25.97818586 74.10867663 22.96033673 74.18762754 19.9375 74.25 C19.08994141 74.28351563 18.24238281 74.31703125 17.36914062 74.3515625 C11.36777629 74.44424766 7.76817882 73.76595015 3 70 C0.32371062 64.9500364 -0.42220182 60.820769 -0.29296875 55.09765625 C-0.28872391 54.3750914 -0.28447906 53.65252655 -0.28010559 52.9080658 C-0.26346418 50.62581307 -0.22584248 48.34448067 -0.1875 46.0625 C-0.17243423 44.50457015 -0.15874916 42.9466263 -0.14648438 41.38867188 C-0.11360882 37.59209943 -0.0619309 33.79620513 0 30 C-2.64 30 -5.28 30 -8 30 C-8.02687279 28.18757948 -8.04633715 26.37504767 -8.0625 24.5625 C-8.07410156 23.55316406 -8.08570313 22.54382813 -8.09765625 21.50390625 C-8 19 -8 19 -7 18 C-4.69 18 -2.38 18 0 18 C0 12.06 0 6.12 0 0 Z " fill="#FFFFFF" transform="translate(394,466)"/>
    <path d="M0 0 C4.62 0 9.24 0 14 0 C14 26.73 14 53.46 14 81 C9.38 81 4.76 81 0 81 C0 54.27 0 27.54 0 0 Z " fill="#FFFFFF" transform="translate(165,459)"/>
    <path d="M0 0 C4.62 0 9.24 0 14 0 C15.23446117 2.46892235 15.12693347 4.10019897 15.12939453 6.86108398 C15.13254669 7.8723082 15.13569885 8.88353241 15.13894653 9.92539978 C15.1369223 11.02122879 15.13489807 12.1170578 15.1328125 13.24609375 C15.13376923 14.36814713 15.13472595 15.4902005 15.13571167 16.64625549 C15.13639314 19.02271582 15.13454116 21.399178 15.13037109 23.77563477 C15.12502739 27.41882504 15.13031466 31.06189174 15.13671875 34.70507812 C15.13605786 37.01041694 15.13477649 39.31575568 15.1328125 41.62109375 C15.13483673 42.71489853 15.13686096 43.80870331 15.13894653 44.93565369 C15.13579437 45.95003006 15.13264221 46.96440643 15.12939453 48.00952148 C15.12820114 49.3494944 15.12820114 49.3494944 15.12698364 50.71653748 C15 53 15 53 14 56 C9.71 56 5.42 56 1 56 C0.12168135 49.23785817 -0.13348574 42.65419372 -0.09765625 35.83984375 C-0.0962413 34.80936417 -0.09482635 33.77888458 -0.09336853 32.71717834 C-0.08781447 29.45725481 -0.0752707 26.19740243 -0.0625 22.9375 C-0.05747906 20.71419371 -0.05291719 18.49088633 -0.04882812 16.26757812 C-0.03786013 10.84502507 -0.02062762 5.42252456 0 0 Z " fill="#FFFFFF" transform="translate(497,484)"/>
    <path d="M0 0 C3.41639845 1.9739191 4.72268412 3.18538459 6 6.9375 C6 10.57241294 5.19961414 12.14864833 3 15 C-0.20841035 16.60420518 -3.5193987 16.47462745 -7 16 C-9.5 14.5 -9.5 14.5 -11 12 C-11.60443392 9.19082139 -11.66040854 6.80242927 -11 4 C-7.72794548 0.1505241 -4.96702569 -0.82783761 0 0 Z " fill="#FFFFFF" transform="translate(508,459)"/>
</svg>
